<svg id="mermaid-svg-1780520702683" width="100%" xmlns="http://www.w3.org/2000/svg" class="classDiagram" style="max-width: 1031.234375px;" viewBox="0 0 1031.234375 860" role="graphics-document document" aria-roledescription="class"><style>#mermaid-svg-1780520702683{font-family:"trebuchet ms",verdana,arial,sans-serif;font-size:16px;fill:#000000;}@keyframes edge-animation-frame{from{stroke-dashoffset:0;}}@keyframes dash{to{stroke-dashoffset:0;}}#mermaid-svg-1780520702683 .edge-animation-slow{stroke-dasharray:9,5!important;stroke-dashoffset:900;animation:dash 50s linear infinite;stroke-linecap:round;}#mermaid-svg-1780520702683 .edge-animation-fast{stroke-dasharray:9,5!important;stroke-dashoffset:900;animation:dash 20s linear infinite;stroke-linecap:round;}#mermaid-svg-1780520702683 .error-icon{fill:#ffffff;}#mermaid-svg-1780520702683 .error-text{fill:#000000;stroke:#000000;}#mermaid-svg-1780520702683 .edge-thickness-normal{stroke-width:1px;}#mermaid-svg-1780520702683 .edge-thickness-thick{stroke-width:3.5px;}#mermaid-svg-1780520702683 .edge-pattern-solid{stroke-dasharray:0;}#mermaid-svg-1780520702683 .edge-thickness-invisible{stroke-width:0;fill:none;}#mermaid-svg-1780520702683 .edge-pattern-dashed{stroke-dasharray:3;}#mermaid-svg-1780520702683 .edge-pattern-dotted{stroke-dasharray:2;}#mermaid-svg-1780520702683 .marker{fill:#000000;stroke:#000000;}#mermaid-svg-1780520702683 .marker.cross{stroke:#000000;}#mermaid-svg-1780520702683 svg{font-family:"trebuchet ms",verdana,arial,sans-serif;font-size:16px;}#mermaid-svg-1780520702683 p{margin:0;}#mermaid-svg-1780520702683 g.classGroup text{fill:#000000;stroke:none;font-family:"trebuchet ms",verdana,arial,sans-serif;font-size:10px;}#mermaid-svg-1780520702683 g.classGroup text .title{font-weight:bolder;}#mermaid-svg-1780520702683 .nodeLabel,#mermaid-svg-1780520702683 .edgeLabel{color:#000000;}#mermaid-svg-1780520702683 .edgeLabel .label rect{fill:#ffffff;}#mermaid-svg-1780520702683 .label text{fill:#000000;}#mermaid-svg-1780520702683 .labelBkg{background:#ffffff;}#mermaid-svg-1780520702683 .edgeLabel .label span{background:#ffffff;}#mermaid-svg-1780520702683 .classTitle{font-weight:bolder;}#mermaid-svg-1780520702683 .node rect,#mermaid-svg-1780520702683 .node circle,#mermaid-svg-1780520702683 .node ellipse,#mermaid-svg-1780520702683 .node polygon,#mermaid-svg-1780520702683 .node path{fill:#ffffff;stroke:#000000;stroke-width:1px;}#mermaid-svg-1780520702683 .divider{stroke:#000000;stroke-width:1;}#mermaid-svg-1780520702683 g.clickable{cursor:pointer;}#mermaid-svg-1780520702683 g.classGroup rect{fill:#ffffff;stroke:#000000;}#mermaid-svg-1780520702683 g.classGroup line{stroke:#000000;stroke-width:1;}#mermaid-svg-1780520702683 .classLabel .box{stroke:none;stroke-width:0;fill:#ffffff;opacity:0.5;}#mermaid-svg-1780520702683 .classLabel .label{fill:#000000;font-size:10px;}#mermaid-svg-1780520702683 .relation{stroke:#000000;stroke-width:1;fill:none;}#mermaid-svg-1780520702683 .dashed-line{stroke-dasharray:3;}#mermaid-svg-1780520702683 .dotted-line{stroke-dasharray:1 2;}#mermaid-svg-1780520702683 #compositionStart,#mermaid-svg-1780520702683 .composition{fill:#000000!important;stroke:#000000!important;stroke-width:1;}#mermaid-svg-1780520702683 #compositionEnd,#mermaid-svg-1780520702683 .composition{fill:#000000!important;stroke:#000000!important;stroke-width:1;}#mermaid-svg-1780520702683 #dependencyStart,#mermaid-svg-1780520702683 .dependency{fill:#000000!important;stroke:#000000!important;stroke-width:1;}#mermaid-svg-1780520702683 #dependencyStart,#mermaid-svg-1780520702683 .dependency{fill:#000000!important;stroke:#000000!important;stroke-width:1;}#mermaid-svg-1780520702683 #extensionStart,#mermaid-svg-1780520702683 .extension{fill:transparent!important;stroke:#000000!important;stroke-width:1;}#mermaid-svg-1780520702683 #extensionEnd,#mermaid-svg-1780520702683 .extension{fill:transparent!important;stroke:#000000!important;stroke-width:1;}#mermaid-svg-1780520702683 #aggregationStart,#mermaid-svg-1780520702683 .aggregation{fill:transparent!important;stroke:#000000!important;stroke-width:1;}#mermaid-svg-1780520702683 #aggregationEnd,#mermaid-svg-1780520702683 .aggregation{fill:transparent!important;stroke:#000000!important;stroke-width:1;}#mermaid-svg-1780520702683 #lollipopStart,#mermaid-svg-1780520702683 .lollipop{fill:#ffffff!important;stroke:#000000!important;stroke-width:1;}#mermaid-svg-1780520702683 #lollipopEnd,#mermaid-svg-1780520702683 .lollipop{fill:#ffffff!important;stroke:#000000!important;stroke-width:1;}#mermaid-svg-1780520702683 .edgeTerminals{font-size:11px;line-height:initial;}#mermaid-svg-1780520702683 .classTitleText{text-anchor:middle;font-size:18px;fill:#000000;}#mermaid-svg-1780520702683 .label-icon{display:inline-block;height:1em;overflow:visible;vertical-align:-0.125em;}#mermaid-svg-1780520702683 .node .label-icon path{fill:currentColor;stroke:revert;stroke-width:revert;}#mermaid-svg-1780520702683 :root{--mermaid-font-family:"trebuchet ms",verdana,arial,sans-serif;}</style><g><defs><marker id="mermaid-svg-1780520702683_class-aggregationStart" class="marker aggregation class" refX="18" refY="7" markerWidth="190" markerHeight="240" orient="auto"><path d="M 18,7 L9,13 L1,7 L9,1 Z"></path></marker></defs><defs><marker id="mermaid-svg-1780520702683_class-aggregationEnd" class="marker aggregation class" refX="1" refY="7" markerWidth="20" markerHeight="28" orient="auto"><path d="M 18,7 L9,13 L1,7 L9,1 Z"></path></marker></defs><defs><marker id="mermaid-svg-1780520702683_class-extensionStart" class="marker extension class" refX="18" refY="7" markerWidth="190" markerHeight="240" orient="auto"><path d="M 1,7 L18,13 V 1 Z"></path></marker></defs><defs><marker id="mermaid-svg-1780520702683_class-extensionEnd" class="marker extension class" refX="1" refY="7" markerWidth="20" markerHeight="28" orient="auto"><path d="M 1,1 V 13 L18,7 Z"></path></marker></defs><defs><marker id="mermaid-svg-1780520702683_class-compositionStart" class="marker composition class" refX="18" refY="7" markerWidth="190" markerHeight="240" orient="auto"><path d="M 18,7 L9,13 L1,7 L9,1 Z"></path></marker></defs><defs><marker id="mermaid-svg-1780520702683_class-compositionEnd" class="marker composition class" refX="1" refY="7" markerWidth="20" markerHeight="28" orient="auto"><path d="M 18,7 L9,13 L1,7 L9,1 Z"></path></marker></defs><defs><marker id="mermaid-svg-1780520702683_class-dependencyStart" class="marker dependency class" refX="6" refY="7" markerWidth="190" markerHeight="240" orient="auto"><path d="M 5,7 L9,13 L1,7 L9,1 Z"></path></marker></defs><defs><marker id="mermaid-svg-1780520702683_class-dependencyEnd" class="marker dependency class" refX="13" refY="7" markerWidth="20" markerHeight="28" orient="auto"><path d="M 18,7 L9,13 L14,7 L9,1 Z"></path></marker></defs><defs><marker id="mermaid-svg-1780520702683_class-lollipopStart" class="marker lollipop class" refX="13" refY="7" markerWidth="190" markerHeight="240" orient="auto"><circle stroke="black" fill="transparent" cx="7" cy="7" r="6"></circle></marker></defs><defs><marker id="mermaid-svg-1780520702683_class-lollipopEnd" class="marker lollipop class" refX="1" refY="7" markerWidth="190" markerHeight="240" orient="auto"><circle stroke="black" fill="transparent" cx="7" cy="7" r="6"></circle></marker></defs><g class="root"><g class="clusters"></g><g class="edgePaths"><path d="M262.175,251.405L253.251,257.004C244.328,262.603,226.48,273.802,217.557,287.568C208.633,301.333,208.633,317.667,208.633,325.833L208.633,334" id="id_ATM_Controller_BankDatabase_1" class="edge-thickness-normal edge-pattern-solid relation" style=";;;" data-edge="true" data-et="edge" data-id="id_ATM_Controller_BankDatabase_1" data-points="W3sieCI6Mjc2Ljc4NzEwOTM3NSwieSI6MjQyLjIzNjg1MzQwMjg1NTI3fSx7IngiOjIwOC42MzI4MTI1LCJ5IjoyODV9LHsieCI6MjA4LjYzMjgxMjUsInkiOjMzNH1d" marker-start="url(#mermaid-svg-1780520702683_class-compositionStart)"></path><path d="M208.633,519.25L208.633,524.542C208.633,529.833,208.633,540.417,208.633,551.875C208.633,563.333,208.633,575.667,208.633,581.833L208.633,588" id="id_BankDatabase_Account_2" class="edge-thickness-normal edge-pattern-solid relation" style=";;;" data-edge="true" data-et="edge" data-id="id_BankDatabase_Account_2" data-points="W3sieCI6MjA4LjYzMjgxMjUsInkiOjUwMn0seyJ4IjoyMDguNjMyODEyNSwieSI6NTUxfSx7IngiOjIwOC42MzI4MTI1LCJ5Ijo1ODh9XQ==" marker-start="url(#mermaid-svg-1780520702683_class-compositionStart)"></path><path d="M640.92,242.237L652.279,249.364C663.638,256.491,686.356,270.746,697.715,283.039C709.074,295.333,709.074,305.667,709.074,310.833L709.074,316" id="id_ATM_Controller_Transaction_3" class="edge-thickness-normal edge-pattern-dashed relation" style=";;;" data-edge="true" data-et="edge" data-id="id_ATM_Controller_Transaction_3" data-points="W3sieCI6NjQwLjkxOTkyMTg3NSwieSI6MjQyLjIzNjg1MzQwMjg1NTI3fSx7IngiOjcwOS4wNzQyMTg3NSwieSI6Mjg1fSx7IngiOjcwOS4wNzQyMTg3NSwieSI6MzIyfV0=" marker-end="url(#mermaid-svg-1780520702683_class-dependencyEnd)"></path><path d="M588.037,490.338L571.12,500.448C554.203,510.559,520.369,530.779,503.452,557.056C486.535,583.333,486.535,615.667,486.535,631.833L486.535,648" id="id_Transaction_Withdrawal_4" class="edge-thickness-normal edge-pattern-solid relation" style=";;;" data-edge="true" data-et="edge" data-id="id_Transaction_Withdrawal_4" data-points="W3sieCI6NjAyLjg0Mzc1LCJ5Ijo0ODEuNDg4NDE0OTU1MjM5Nn0seyJ4Ijo0ODYuNTM1MTU2MjUsInkiOjU1MX0seyJ4Ijo0ODYuNTM1MTU2MjUsInkiOjY0OH1d" marker-start="url(#mermaid-svg-1780520702683_class-extensionStart)"></path><path d="M709.074,531.25L709.074,534.542C709.074,537.833,709.074,544.417,709.074,561.875C709.074,579.333,709.074,607.667,709.074,621.833L709.074,636" id="id_Transaction_Deposit_5" class="edge-thickness-normal edge-pattern-solid relation" style=";;;" data-edge="true" data-et="edge" data-id="id_Transaction_Deposit_5" data-points="W3sieCI6NzA5LjA3NDIxODc1LCJ5Ijo1MTR9LHsieCI6NzA5LjA3NDIxODc1LCJ5Ijo1NTF9LHsieCI6NzA5LjA3NDIxODc1LCJ5Ijo2MzZ9XQ==" marker-start="url(#mermaid-svg-1780520702683_class-extensionStart)"></path><path d="M830.127,490.064L847.187,500.22C864.247,510.376,898.368,530.688,915.428,555.011C932.488,579.333,932.488,607.667,932.488,621.833L932.488,636" id="id_Transaction_BillPayment_6" class="edge-thickness-normal edge-pattern-solid relation" style=";;;" data-edge="true" data-et="edge" data-id="id_Transaction_BillPayment_6" data-points="W3sieCI6ODE1LjMwNDY4NzUsInkiOjQ4MS4yMzk3NjI5MTIxOTM1Nn0seyJ4Ijo5MzIuNDg4MjgxMjUsInkiOjU1MX0seyJ4Ijo5MzIuNDg4MjgxMjUsInkiOjYzNn1d" marker-start="url(#mermaid-svg-1780520702683_class-extensionStart)"></path></g><g class="edgeLabels"><g class="edgeLabel" transform="translate(208.6328125, 285)"><g class="label" data-id="id_ATM_Controller_BankDatabase_1" transform="translate(-30.671875, -12)"><foreignObject width="61.34375" height="24"><div xmlns="http://www.w3.org/1999/xhtml" class="labelBkg" style="display: table-cell; white-space: nowrap; line-height: 1.5; max-width: 200px; text-align: center;"><span class="edgeLabel"><p>gerencia</p></span></div></foreignObject></g></g><g class="edgeLabel" transform="translate(208.6328125, 551)"><g class="label" data-id="id_BankDatabase_Account_2" transform="translate(-26.8046875, -12)"><foreignObject width="53.609375" height="24"><div xmlns="http://www.w3.org/1999/xhtml" class="labelBkg" style="display: table-cell; white-space: nowrap; line-height: 1.5; max-width: 200px; text-align: center;"><span class="edgeLabel"><p>contém</p></span></div></foreignObject></g></g><g class="edgeLabel" transform="translate(709.07421875, 285)"><g class="label" data-id="id_ATM_Controller_Transaction_3" transform="translate(-28.4453125, -12)"><foreignObject width="56.890625" height="24"><div xmlns="http://www.w3.org/1999/xhtml" class="labelBkg" style="display: table-cell; white-space: nowrap; line-height: 1.5; max-width: 200px; text-align: center;"><span class="edgeLabel"><p>executa</p></span></div></foreignObject></g></g><g class="edgeLabel"><g class="label" data-id="id_Transaction_Withdrawal_4" transform="translate(0, 0)"><foreignObject width="0" height="0"><div xmlns="http://www.w3.org/1999/xhtml" class="labelBkg" style="display: table-cell; white-space: nowrap; line-height: 1.5; max-width: 200px; text-align: center;"><span class="edgeLabel"></span></div></foreignObject></g></g><g class="edgeLabel"><g class="label" data-id="id_Transaction_Deposit_5" transform="translate(0, 0)"><foreignObject width="0" height="0"><div xmlns="http://www.w3.org/1999/xhtml" class="labelBkg" style="display: table-cell; white-space: nowrap; line-height: 1.5; max-width: 200px; text-align: center;"><span class="edgeLabel"></span></div></foreignObject></g></g><g class="edgeLabel"><g class="label" data-id="id_Transaction_BillPayment_6" transform="translate(0, 0)"><foreignObject width="0" height="0"><div xmlns="http://www.w3.org/1999/xhtml" class="labelBkg" style="display: table-cell; white-space: nowrap; line-height: 1.5; max-width: 200px; text-align: center;"><span class="edgeLabel"></span></div></foreignObject></g></g><g class="edgeTerminals" transform="translate(253.9911368145914, 238.83191118238588)"><g class="inner" transform="translate(0, 0)"><foreignObject style="width: 9px; height: 12px;"><div xmlns="http://www.w3.org/1999/xhtml" style="display: inline-block; padding-right: 1px; white-space: nowrap;"><span class="edgeLabel">1</span></div></foreignObject></g></g><g class="edgeTerminals" transform="translate(193.63281125000003, 519.4999989285715)"><g class="inner" transform="translate(0, 0)"><foreignObject style="width: 9px; height: 12px;"><div xmlns="http://www.w3.org/1999/xhtml" style="display: inline-block; padding-right: 1px; white-space: nowrap;"><span class="edgeLabel">1</span></div></foreignObject></g></g><g class="edgeTerminals" transform="translate(218.63281124999997, 311.4999989285714)"><g class="inner" transform="translate(0, 0)"></g><foreignObject style="width: 9px; height: 12px;"><div xmlns="http://www.w3.org/1999/xhtml" style="display: inline-block; padding-right: 1px; white-space: nowrap;"><span class="edgeLabel">1</span></div></foreignObject></g><g class="edgeTerminals" transform="translate(218.63281124999997, 565.4999989285715)"><g class="inner" transform="translate(0, 0)"></g><foreignObject style="width: 36px; height: 12px;"><div xmlns="http://www.w3.org/1999/xhtml" style="display: inline-block; padding-right: 1px; white-space: nowrap;"><span class="edgeLabel">many</span></div></foreignObject></g></g><g class="nodes"><g class="node default" id="classId-ATM_Controller-2" transform="translate(458.853515625, 128)"><g class="basic label-container"><path d="M-182.06640625 -120 L182.06640625 -120 L182.06640625 120 L-182.06640625 120" stroke="none" stroke-width="0" fill="#ffffff" style=""></path><path d="M-182.06640625 -120 C-44.4355844565051 -120, 93.1952373369898 -120, 182.06640625 -120 M-182.06640625 -120 C-79.24751909837016 -120, 23.571368053259675 -120, 182.06640625 -120 M182.06640625 -120 C182.06640625 -71.49579692179127, 182.06640625 -22.991593843582535, 182.06640625 120 M182.06640625 -120 C182.06640625 -46.253434408382276, 182.06640625 27.493131183235448, 182.06640625 120 M182.06640625 120 C37.27554474249615 120, -107.5153167650077 120, -182.06640625 120 M182.06640625 120 C44.54110908994062 120, -92.98418807011876 120, -182.06640625 120 M-182.06640625 120 C-182.06640625 63.6671177647989, -182.06640625 7.334235529597805, -182.06640625 -120 M-182.06640625 120 C-182.06640625 60.315757464853114, -182.06640625 0.6315149297062277, -182.06640625 -120" stroke="#000000" stroke-width="1.3" fill="none" stroke-dasharray="0 0" style=""></path></g><g class="annotation-group text" transform="translate(0, -96)"></g><g class="label-group text" transform="translate(-57.8515625, -96)"><g class="label" style="font-weight: bolder" transform="translate(0,-12)"><foreignObject width="115.703125" height="24"><div xmlns="http://www.w3.org/1999/xhtml" style="display: table-cell; white-space: nowrap; line-height: 1.5; max-width: 160px; text-align: center;"><span class="nodeLabel markdown-node-label" style=""><p>ATM_Controller</p></span></div></foreignObject></g></g><g class="members-group text" transform="translate(-170.06640625, -48)"><g class="label" style="" transform="translate(0,-12)"><foreignObject width="128.296875" height="24"><div xmlns="http://www.w3.org/1999/xhtml" style="display: table-cell; white-space: nowrap; line-height: 1.5; max-width: 187px; text-align: center;"><span class="nodeLabel markdown-node-label" style=""><p>-BankDatabase db</p></span></div></foreignObject></g><g class="label" style="" transform="translate(0,12)"><foreignObject width="184.875" height="24"><div xmlns="http://www.w3.org/1999/xhtml" style="display: table-cell; white-space: nowrap; line-height: 1.5; max-width: 242px; text-align: center;"><span class="nodeLabel markdown-node-label" style=""><p>-Account* currentAccount</p></span></div></foreignObject></g><g class="label" style="" transform="translate(0,36)"><foreignObject width="216.0625" height="24"><div xmlns="http://www.w3.org/1999/xhtml" style="display: table-cell; white-space: nowrap; line-height: 1.5; max-width: 269px; text-align: center;"><span class="nodeLabel markdown-node-label" style=""><p>-HardwareSimulator hardware</p></span></div></foreignObject></g></g><g class="methods-group text" transform="translate(-170.06640625, 48)"><g class="label" style="" transform="translate(0,-12)"><foreignObject width="282.28125" height="24"><div xmlns="http://www.w3.org/1999/xhtml" style="display: table-cell; white-space: nowrap; line-height: 1.5; max-width: 331px; text-align: center;"><span class="nodeLabel markdown-node-label" style=""><p>+authenticateUser(int accNum, int pin)</p></span></div></foreignObject></g><g class="label" style="" transform="translate(0,12)"><foreignObject width="258.265625" height="24"><div xmlns="http://www.w3.org/1999/xhtml" style="display: table-cell; white-space: nowrap; line-height: 1.5; max-width: 308px; text-align: center;"><span class="nodeLabel markdown-node-label" style=""><p>+executeTransaction(Transaction* t)</p></span></div></foreignObject></g><g class="label" style="" transform="translate(0,36)"><foreignObject width="90.84375" height="24"><div xmlns="http://www.w3.org/1999/xhtml" style="display: table-cell; white-space: nowrap; line-height: 1.5; max-width: 144px; text-align: center;"><span class="nodeLabel markdown-node-label" style=""><p>+ejectCard()</p></span></div></foreignObject></g></g><g class="divider" style=""><path d="M-182.06640625 -72 C-56.69559846560415 -72, 68.6752093187917 -72, 182.06640625 -72 M-182.06640625 -72 C-82.17307705262373 -72, 17.72025214475255 -72, 182.06640625 -72" stroke="#000000" stroke-width="1.3" fill="none" stroke-dasharray="0 0" style=""></path></g><g class="divider" style=""><path d="M-182.06640625 24 C-47.41655211255372 24, 87.23330202489257 24, 182.06640625 24 M-182.06640625 24 C-41.70310518542277 24, 98.66019587915446 24, 182.06640625 24" stroke="#000000" stroke-width="1.3" fill="none" stroke-dasharray="0 0" style=""></path></g></g><g class="node default" id="classId-BankDatabase-3" transform="translate(208.6328125, 418)"><g class="basic label-container"><path d="M-200.6328125 -84 L200.6328125 -84 L200.6328125 84 L-200.6328125 84" stroke="none" stroke-width="0" fill="#ffffff" style=""></path><path d="M-200.6328125 -84 C-91.81556411403132 -84, 17.001684271937364 -84, 200.6328125 -84 M-200.6328125 -84 C-74.11597148731562 -84, 52.40086952536876 -84, 200.6328125 -84 M200.6328125 -84 C200.6328125 -36.034214714611586, 200.6328125 11.931570570776827, 200.6328125 84 M200.6328125 -84 C200.6328125 -19.65043233337282, 200.6328125 44.69913533325436, 200.6328125 84 M200.6328125 84 C90.97071113697284 84, -18.691390226054324 84, -200.6328125 84 M200.6328125 84 C51.79770309686441 84, -97.03740630627118 84, -200.6328125 84 M-200.6328125 84 C-200.6328125 19.273625411237518, -200.6328125 -45.452749177524964, -200.6328125 -84 M-200.6328125 84 C-200.6328125 47.424164594975714, -200.6328125 10.848329189951428, -200.6328125 -84" stroke="#000000" stroke-width="1.3" fill="none" stroke-dasharray="0 0" style=""></path></g><g class="annotation-group text" transform="translate(0, -60)"></g><g class="label-group text" transform="translate(-51.921875, -60)"><g class="label" style="font-weight: bolder" transform="translate(0,-12)"><foreignObject width="103.84375" height="24"><div xmlns="http://www.w3.org/1999/xhtml" style="display: table-cell; white-space: nowrap; line-height: 1.5; max-width: 150px; text-align: center;"><span class="nodeLabel markdown-node-label" style=""><p>BankDatabase</p></span></div></foreignObject></g></g><g class="members-group text" transform="translate(-188.6328125, -12)"><g class="label" style="" transform="translate(0,-12)"><foreignObject width="193.953125" height="24"><div xmlns="http://www.w3.org/1999/xhtml" style="display: table-cell; white-space: nowrap; line-height: 1.5; max-width: 289px; text-align: center;"><span class="nodeLabel markdown-node-label" style=""><p>-vector&lt;Account&gt; accounts</p></span></div></foreignObject></g></g><g class="methods-group text" transform="translate(-188.6328125, 36)"><g class="label" style="font-style:italic;" transform="translate(0,-12)"><foreignObject width="259.65625" height="24"><div xmlns="http://www.w3.org/1999/xhtml" style="display: table-cell; white-space: nowrap; line-height: 1.5; max-width: 314px; text-align: center;"><span class="nodeLabel markdown-node-label" style=""><p>+findAccount(int accNum) : Account</p></span></div></foreignObject></g><g class="label" style="" transform="translate(0,12)"><foreignObject width="325.34375" height="24"><div xmlns="http://www.w3.org/1999/xhtml" style="display: table-cell; white-space: nowrap; line-height: 1.5; max-width: 379px; text-align: center;"><span class="nodeLabel markdown-node-label" style=""><p>+updateBalance(int accNum, double amount)</p></span></div></foreignObject></g></g><g class="divider" style=""><path d="M-200.6328125 -36 C-44.717029149751454 -36, 111.19875420049709 -36, 200.6328125 -36 M-200.6328125 -36 C-113.77002658672446 -36, -26.90724067344891 -36, 200.6328125 -36" stroke="#000000" stroke-width="1.3" fill="none" stroke-dasharray="0 0" style=""></path></g><g class="divider" style=""><path d="M-200.6328125 12 C-95.68987478336935 12, 9.253062933261305 12, 200.6328125 12 M-200.6328125 12 C-80.36850263044649 12, 39.89580723910703 12, 200.6328125 12" stroke="#000000" stroke-width="1.3" fill="none" stroke-dasharray="0 0" style=""></path></g></g><g class="node default" id="classId-Account-4" transform="translate(208.6328125, 720)"><g class="basic label-container"><path d="M-138.03125 -132 L138.03125 -132 L138.03125 132 L-138.03125 132" stroke="none" stroke-width="0" fill="#ffffff" style=""></path><path d="M-138.03125 -132 C-50.349301459356894 -132, 37.33264708128621 -132, 138.03125 -132 M-138.03125 -132 C-78.54544241399847 -132, -19.05963482799693 -132, 138.03125 -132 M138.03125 -132 C138.03125 -39.094041142479284, 138.03125 53.81191771504143, 138.03125 132 M138.03125 -132 C138.03125 -67.43494583802709, 138.03125 -2.8698916760541806, 138.03125 132 M138.03125 132 C32.072147167716295 132, -73.88695566456741 132, -138.03125 132 M138.03125 132 C57.18846162098727 132, -23.654326758025462 132, -138.03125 132 M-138.03125 132 C-138.03125 61.35979827013037, -138.03125 -9.280403459739262, -138.03125 -132 M-138.03125 132 C-138.03125 33.900232745656226, -138.03125 -64.19953450868755, -138.03125 -132" stroke="#000000" stroke-width="1.3" fill="none" stroke-dasharray="0 0" style=""></path></g><g class="annotation-group text" transform="translate(0, -108)"></g><g class="label-group text" transform="translate(-30.40625, -108)"><g class="label" style="font-weight: bolder" transform="translate(0,-12)"><foreignObject width="60.8125" height="24"><div xmlns="http://www.w3.org/1999/xhtml" style="display: table-cell; white-space: nowrap; line-height: 1.5; max-width: 110px; text-align: center;"><span class="nodeLabel markdown-node-label" style=""><p>Account</p></span></div></foreignObject></g></g><g class="members-group text" transform="translate(-126.03125, -60)"><g class="label" style="" transform="translate(0,-12)"><foreignObject width="143.109375" height="24"><div xmlns="http://www.w3.org/1999/xhtml" style="display: table-cell; white-space: nowrap; line-height: 1.5; max-width: 201px; text-align: center;"><span class="nodeLabel markdown-node-label" style=""><p>-int accountNumber</p></span></div></foreignObject></g><g class="label" style="" transform="translate(0,12)"><foreignObject width="52.5625" height="24"><div xmlns="http://www.w3.org/1999/xhtml" style="display: table-cell; white-space: nowrap; line-height: 1.5; max-width: 109px; text-align: center;"><span class="nodeLabel markdown-node-label" style=""><p>-int pin</p></span></div></foreignObject></g><g class="label" style="" transform="translate(0,36)"><foreignObject width="115.140625" height="24"><div xmlns="http://www.w3.org/1999/xhtml" style="display: table-cell; white-space: nowrap; line-height: 1.5; max-width: 172px; text-align: center;"><span class="nodeLabel markdown-node-label" style=""><p>-double balance</p></span></div></foreignObject></g><g class="label" style="" transform="translate(0,60)"><foreignObject width="162.3125" height="24"><div xmlns="http://www.w3.org/1999/xhtml" style="display: table-cell; white-space: nowrap; line-height: 1.5; max-width: 257px; text-align: center;"><span class="nodeLabel markdown-node-label" style=""><p>-vector&lt;string&gt; history</p></span></div></foreignObject></g></g><g class="methods-group text" transform="translate(-126.03125, 60)"><g class="label" style="" transform="translate(0,-12)"><foreignObject width="194.65625" height="24"><div xmlns="http://www.w3.org/1999/xhtml" style="display: table-cell; white-space: nowrap; line-height: 1.5; max-width: 247px; text-align: center;"><span class="nodeLabel markdown-node-label" style=""><p>+validatePIN(int pin) : bool</p></span></div></foreignObject></g><g class="label" style="" transform="translate(0,12)"><foreignObject width="163.34375" height="24"><div xmlns="http://www.w3.org/1999/xhtml" style="display: table-cell; white-space: nowrap; line-height: 1.5; max-width: 217px; text-align: center;"><span class="nodeLabel markdown-node-label" style=""><p>+getBalance() : double</p></span></div></foreignObject></g><g class="label" style="" transform="translate(0,36)"><foreignObject width="221.65625" height="24"><div xmlns="http://www.w3.org/1999/xhtml" style="display: table-cell; white-space: nowrap; line-height: 1.5; max-width: 275px; text-align: center;"><span class="nodeLabel markdown-node-label" style=""><p>+addTransaction(string details)</p></span></div></foreignObject></g></g><g class="divider" style=""><path d="M-138.03125 -84 C-58.62534644313692 -84, 20.78055711372616 -84, 138.03125 -84 M-138.03125 -84 C-47.7681680245402 -84, 42.494913950919596 -84, 138.03125 -84" stroke="#000000" stroke-width="1.3" fill="none" stroke-dasharray="0 0" style=""></path></g><g class="divider" style=""><path d="M-138.03125 36 C-62.60583947010673 36, 12.81957105978654 36, 138.03125 36 M-138.03125 36 C-34.012163635720995 36, 70.00692272855801 36, 138.03125 36" stroke="#000000" stroke-width="1.3" fill="none" stroke-dasharray="0 0" style=""></path></g></g><g class="node default" id="classId-Transaction-5" transform="translate(709.07421875, 418)"><g class="basic label-container"><path d="M-106.23046875 -96 L106.23046875 -96 L106.23046875 96 L-106.23046875 96" stroke="none" stroke-width="0" fill="#ffffff" style=""></path><path d="M-106.23046875 -96 C-63.27242259473274 -96, -20.314376439465477 -96, 106.23046875 -96 M-106.23046875 -96 C-52.31658818114385 -96, 1.5972923877123009 -96, 106.23046875 -96 M106.23046875 -96 C106.23046875 -56.208317411575074, 106.23046875 -16.416634823150147, 106.23046875 96 M106.23046875 -96 C106.23046875 -24.557759672514223, 106.23046875 46.884480654971554, 106.23046875 96 M106.23046875 96 C31.105613415797308 96, -44.019241918405385 96, -106.23046875 96 M106.23046875 96 C31.00737397208215 96, -44.2157208058357 96, -106.23046875 96 M-106.23046875 96 C-106.23046875 41.4519682637104, -106.23046875 -13.096063472579203, -106.23046875 -96 M-106.23046875 96 C-106.23046875 55.696451814112976, -106.23046875 15.392903628225952, -106.23046875 -96" stroke="#000000" stroke-width="1.3" fill="none" stroke-dasharray="0 0" style=""></path></g><g class="annotation-group text" transform="translate(-37.90625, -72)"><g class="label" style="" transform="translate(0,-12)"><foreignObject width="75.8125" height="24"><div xmlns="http://www.w3.org/1999/xhtml" style="display: table-cell; white-space: nowrap; line-height: 1.5; max-width: 122px; text-align: center;"><span class="nodeLabel markdown-node-label" style=""><p>«abstract»</p></span></div></foreignObject></g></g><g class="label-group text" transform="translate(-42.8359375, -48)"><g class="label" style="font-weight: bolder" transform="translate(0,-12)"><foreignObject width="85.671875" height="24"><div xmlns="http://www.w3.org/1999/xhtml" style="display: table-cell; white-space: nowrap; line-height: 1.5; max-width: 130px; text-align: center;"><span class="nodeLabel markdown-node-label" style=""><p>Transaction</p></span></div></foreignObject></g></g><g class="members-group text" transform="translate(-94.23046875, 0)"><g class="label" style="" transform="translate(0,-12)"><foreignObject width="145.625" height="24"><div xmlns="http://www.w3.org/1999/xhtml" style="display: table-cell; white-space: nowrap; line-height: 1.5; max-width: 204px; text-align: center;"><span class="nodeLabel markdown-node-label" style=""><p>#int accountNumber</p></span></div></foreignObject></g><g class="label" style="" transform="translate(0,12)"><foreignObject width="136.6875" height="24"><div xmlns="http://www.w3.org/1999/xhtml" style="display: table-cell; white-space: nowrap; line-height: 1.5; max-width: 196px; text-align: center;"><span class="nodeLabel markdown-node-label" style=""><p>#BankDatabase* db</p></span></div></foreignObject></g></g><g class="methods-group text" transform="translate(-94.23046875, 72)"><g class="label" style="font-style:italic;" transform="translate(0,-12)"><foreignObject width="76.921875" height="24"><div xmlns="http://www.w3.org/1999/xhtml" style="display: table-cell; white-space: nowrap; line-height: 1.5; max-width: 132px; text-align: center;"><span class="nodeLabel markdown-node-label" style=""><p>+execute()</p></span></div></foreignObject></g></g><g class="divider" style=""><path d="M-106.23046875 -24 C-28.520040307978633 -24, 49.190388134042735 -24, 106.23046875 -24 M-106.23046875 -24 C-29.91132555144584 -24, 46.40781764710832 -24, 106.23046875 -24" stroke="#000000" stroke-width="1.3" fill="none" stroke-dasharray="0 0" style=""></path></g><g class="divider" style=""><path d="M-106.23046875 48 C-35.34808363470974 48, 35.534301480580524 48, 106.23046875 48 M-106.23046875 48 C-27.059475432334196 48, 52.11151788533161 48, 106.23046875 48" stroke="#000000" stroke-width="1.3" fill="none" stroke-dasharray="0 0" style=""></path></g></g><g class="node default" id="classId-Withdrawal-6" transform="translate(486.53515625, 720)"><g class="basic label-container"><path d="M-89.87109375 -72 L89.87109375 -72 L89.87109375 72 L-89.87109375 72" stroke="none" stroke-width="0" fill="#ffffff" style=""></path><path d="M-89.87109375 -72 C-41.56113740891263 -72, 6.748818932174743 -72, 89.87109375 -72 M-89.87109375 -72 C-43.03802520162495 -72, 3.7950433467501057 -72, 89.87109375 -72 M89.87109375 -72 C89.87109375 -25.318849482646776, 89.87109375 21.362301034706448, 89.87109375 72 M89.87109375 -72 C89.87109375 -16.755877442677708, 89.87109375 38.488245114644585, 89.87109375 72 M89.87109375 72 C29.62845471234631 72, -30.614184325307377 72, -89.87109375 72 M89.87109375 72 C45.41934227984399 72, 0.9675908096879766 72, -89.87109375 72 M-89.87109375 72 C-89.87109375 23.701943609488914, -89.87109375 -24.59611278102217, -89.87109375 -72 M-89.87109375 72 C-89.87109375 22.68097941594906, -89.87109375 -26.63804116810188, -89.87109375 -72" stroke="#000000" stroke-width="1.3" fill="none" stroke-dasharray="0 0" style=""></path></g><g class="annotation-group text" transform="translate(0, -48)"></g><g class="label-group text" transform="translate(-42.3359375, -48)"><g class="label" style="font-weight: bolder" transform="translate(0,-12)"><foreignObject width="84.671875" height="24"><div xmlns="http://www.w3.org/1999/xhtml" style="display: table-cell; white-space: nowrap; line-height: 1.5; max-width: 131px; text-align: center;"><span class="nodeLabel markdown-node-label" style=""><p>Withdrawal</p></span></div></foreignObject></g></g><g class="members-group text" transform="translate(-77.87109375, 0)"><g class="label" style="" transform="translate(0,-12)"><foreignObject width="113.40625" height="24"><div xmlns="http://www.w3.org/1999/xhtml" style="display: table-cell; white-space: nowrap; line-height: 1.5; max-width: 173px; text-align: center;"><span class="nodeLabel markdown-node-label" style=""><p>-double amount</p></span></div></foreignObject></g></g><g class="methods-group text" transform="translate(-77.87109375, 48)"><g class="label" style="" transform="translate(0,-12)"><foreignObject width="77.34375" height="24"><div xmlns="http://www.w3.org/1999/xhtml" style="display: table-cell; white-space: nowrap; line-height: 1.5; max-width: 132px; text-align: center;"><span class="nodeLabel markdown-node-label" style=""><p>+execute()</p></span></div></foreignObject></g></g><g class="divider" style=""><path d="M-89.87109375 -24 C-30.655349873724894 -24, 28.56039400255021 -24, 89.87109375 -24 M-89.87109375 -24 C-31.38552069380092 -24, 27.10005236239816 -24, 89.87109375 -24" stroke="#000000" stroke-width="1.3" fill="none" stroke-dasharray="0 0" style=""></path></g><g class="divider" style=""><path d="M-89.87109375 24 C-50.6348026954462 24, -11.398511640892394 24, 89.87109375 24 M-89.87109375 24 C-23.12238709890414 24, 43.62631955219172 24, 89.87109375 24" stroke="#000000" stroke-width="1.3" fill="none" stroke-dasharray="0 0" style=""></path></g></g><g class="node default" id="classId-Deposit-7" transform="translate(709.07421875, 720)"><g class="basic label-container"><path d="M-82.66796875 -84 L82.66796875 -84 L82.66796875 84 L-82.66796875 84" stroke="none" stroke-width="0" fill="#ffffff" style=""></path><path d="M-82.66796875 -84 C-28.842927290789746 -84, 24.98211416842051 -84, 82.66796875 -84 M-82.66796875 -84 C-22.590004121139167 -84, 37.48796050772167 -84, 82.66796875 -84 M82.66796875 -84 C82.66796875 -40.25473450337551, 82.66796875 3.4905309932489814, 82.66796875 84 M82.66796875 -84 C82.66796875 -32.50378090022442, 82.66796875 18.99243819955116, 82.66796875 84 M82.66796875 84 C28.94263044716977 84, -24.782707855660462 84, -82.66796875 84 M82.66796875 84 C34.337535044715956 84, -13.992898660568088 84, -82.66796875 84 M-82.66796875 84 C-82.66796875 49.106641190508086, -82.66796875 14.213282381016171, -82.66796875 -84 M-82.66796875 84 C-82.66796875 26.654789048424178, -82.66796875 -30.690421903151645, -82.66796875 -84" stroke="#000000" stroke-width="1.3" fill="none" stroke-dasharray="0 0" style=""></path></g><g class="annotation-group text" transform="translate(0, -60)"></g><g class="label-group text" transform="translate(-27.9296875, -60)"><g class="label" style="font-weight: bolder" transform="translate(0,-12)"><foreignObject width="55.859375" height="24"><div xmlns="http://www.w3.org/1999/xhtml" style="display: table-cell; white-space: nowrap; line-height: 1.5; max-width: 105px; text-align: center;"><span class="nodeLabel markdown-node-label" style=""><p>Deposit</p></span></div></foreignObject></g></g><g class="members-group text" transform="translate(-70.66796875, -12)"><g class="label" style="" transform="translate(0,-12)"><foreignObject width="113.40625" height="24"><div xmlns="http://www.w3.org/1999/xhtml" style="display: table-cell; white-space: nowrap; line-height: 1.5; max-width: 173px; text-align: center;"><span class="nodeLabel markdown-node-label" style=""><p>-double amount</p></span></div></foreignObject></g><g class="label" style="" transform="translate(0,12)"><foreignObject width="95.578125" height="24"><div xmlns="http://www.w3.org/1999/xhtml" style="display: table-cell; white-space: nowrap; line-height: 1.5; max-width: 154px; text-align: center;"><span class="nodeLabel markdown-node-label" style=""><p>-bool isCheck</p></span></div></foreignObject></g></g><g class="methods-group text" transform="translate(-70.66796875, 60)"><g class="label" style="" transform="translate(0,-12)"><foreignObject width="77.34375" height="24"><div xmlns="http://www.w3.org/1999/xhtml" style="display: table-cell; white-space: nowrap; line-height: 1.5; max-width: 132px; text-align: center;"><span class="nodeLabel markdown-node-label" style=""><p>+execute()</p></span></div></foreignObject></g></g><g class="divider" style=""><path d="M-82.66796875 -36 C-42.875053528853485 -36, -3.0821383077069697 -36, 82.66796875 -36 M-82.66796875 -36 C-21.805568591839368 -36, 39.056831566321264 -36, 82.66796875 -36" stroke="#000000" stroke-width="1.3" fill="none" stroke-dasharray="0 0" style=""></path></g><g class="divider" style=""><path d="M-82.66796875 36 C-37.280553872904996 36, 8.106861004190009 36, 82.66796875 36 M-82.66796875 36 C-33.365270866410064 36, 15.937427017179871 36, 82.66796875 36" stroke="#000000" stroke-width="1.3" fill="none" stroke-dasharray="0 0" style=""></path></g></g><g class="node default" id="classId-BillPayment-8" transform="translate(932.48828125, 720)"><g class="basic label-container"><path d="M-90.74609375 -84 L90.74609375 -84 L90.74609375 84 L-90.74609375 84" stroke="none" stroke-width="0" fill="#ffffff" style=""></path><path d="M-90.74609375 -84 C-42.72913232420774 -84, 5.287829101584521 -84, 90.74609375 -84 M-90.74609375 -84 C-25.700181190623326 -84, 39.34573136875335 -84, 90.74609375 -84 M90.74609375 -84 C90.74609375 -20.4135031765868, 90.74609375 43.1729936468264, 90.74609375 84 M90.74609375 -84 C90.74609375 -26.449166280341913, 90.74609375 31.101667439316174, 90.74609375 84 M90.74609375 84 C41.345498258876844 84, -8.055097232246311 84, -90.74609375 84 M90.74609375 84 C34.41775175856071 84, -21.910590232878576 84, -90.74609375 84 M-90.74609375 84 C-90.74609375 36.95768969865444, -90.74609375 -10.084620602691118, -90.74609375 -84 M-90.74609375 84 C-90.74609375 35.639378307019605, -90.74609375 -12.72124338596079, -90.74609375 -84" stroke="#000000" stroke-width="1.3" fill="none" stroke-dasharray="0 0" style=""></path></g><g class="annotation-group text" transform="translate(0, -60)"></g><g class="label-group text" transform="translate(-44.0859375, -60)"><g class="label" style="font-weight: bolder" transform="translate(0,-12)"><foreignObject width="88.171875" height="24"><div xmlns="http://www.w3.org/1999/xhtml" style="display: table-cell; white-space: nowrap; line-height: 1.5; max-width: 132px; text-align: center;"><span class="nodeLabel markdown-node-label" style=""><p>BillPayment</p></span></div></foreignObject></g></g><g class="members-group text" transform="translate(-78.74609375, -12)"><g class="label" style="" transform="translate(0,-12)"><foreignObject width="108.765625" height="24"><div xmlns="http://www.w3.org/1999/xhtml" style="display: table-cell; white-space: nowrap; line-height: 1.5; max-width: 166px; text-align: center;"><span class="nodeLabel markdown-node-label" style=""><p>-string barcode</p></span></div></foreignObject></g><g class="label" style="" transform="translate(0,12)"><foreignObject width="113.40625" height="24"><div xmlns="http://www.w3.org/1999/xhtml" style="display: table-cell; white-space: nowrap; line-height: 1.5; max-width: 173px; text-align: center;"><span class="nodeLabel markdown-node-label" style=""><p>-double amount</p></span></div></foreignObject></g></g><g class="methods-group text" transform="translate(-78.74609375, 60)"><g class="label" style="" transform="translate(0,-12)"><foreignObject width="77.34375" height="24"><div xmlns="http://www.w3.org/1999/xhtml" style="display: table-cell; white-space: nowrap; line-height: 1.5; max-width: 132px; text-align: center;"><span class="nodeLabel markdown-node-label" style=""><p>+execute()</p></span></div></foreignObject></g></g><g class="divider" style=""><path d="M-90.74609375 -36 C-26.345589069463102 -36, 38.054915611073795 -36, 90.74609375 -36 M-90.74609375 -36 C-51.07628268115329 -36, -11.406471612306575 -36, 90.74609375 -36" stroke="#000000" stroke-width="1.3" fill="none" stroke-dasharray="0 0" style=""></path></g><g class="divider" style=""><path d="M-90.74609375 36 C-35.2918015496716 36, 20.162490650656807 36, 90.74609375 36 M-90.74609375 36 C-40.702042294176564 36, 9.342009161646871 36, 90.74609375 36" stroke="#000000" stroke-width="1.3" fill="none" stroke-dasharray="0 0" style=""></path></g></g></g></g></g></svg>